<?xml version="1.0" encoding="UTF-8"?>
<svg width="30px" height="40px" viewBox="0 0 30 40" version="1.1" xmlns="http://www.w3.org/2000/svg" xmlns:xlink="http://www.w3.org/1999/xlink">
    <!-- Generator: Sketch 47 (45396) - http://www.bohemiancoding.com/sketch -->
    <title>post-icon</title>
    <desc>Created with Sketch.</desc>
    <defs></defs>
    <g id="Page-1" stroke="none" stroke-width="1" fill="none" fill-rule="evenodd">
        <g id="post-icon" transform="translate(-7.000000, -2.000000)">
            <rect id="cont" fill="#FFFFFF" fill-rule="nonzero" opacity="0" x="0" y="0" width="44" height="44"></rect>
            <polygon id="Rectangle-34-Copy" stroke="#FFFFFF" stroke-width="2" stroke-linecap="round" stroke-linejoin="round" points="26 3 36 13 36 41 8 41 8 3"></polygon>
            <polyline id="Path-133" stroke="#FFFFFF" stroke-width="2" stroke-linecap="round" stroke-linejoin="round" points="26 4 26 13 35 13"></polyline>
            <path d="M20.66,25.26 C20.66,24.7799976 20.7433325,24.3600018 20.91,24 C21.0766675,23.6399982 21.2799988,23.3366679 21.52,23.09 C21.7600012,22.8433321 22.0866646,22.553335 22.5,22.22 C23.0200026,21.8066646 23.4099987,21.433335 23.67,21.1 C23.9300013,20.766665 24.06,20.3533358 24.06,19.86 C24.06,19.3666642 23.9000016,18.9066688 23.58,18.48 C23.2599984,18.0533312 22.6533378,17.84 21.76,17.84 C20.759995,17.84 20.0833351,18.0899975 19.73,18.59 C19.3766649,19.0900025 19.2,19.6533302 19.2,20.28 C19.2,20.4266674 19.2033333,20.5466662 19.21,20.64 C19.2166667,20.7333338 19.22,20.7933332 19.22,20.82 L17.14,20.82 C17.1266666,20.7799998 17.1133334,20.6900007 17.1,20.55 C17.0866666,20.4099993 17.08,20.2666674 17.08,20.12 C17.08,19.3466628 17.2599982,18.6533364 17.62,18.04 C17.9800018,17.4266636 18.5233297,16.9400018 19.25,16.58 C19.9766703,16.2199982 20.8666614,16.04 21.92,16.04 C23.2133398,16.04 24.2533294,16.3566635 25.04,16.99 C25.8266706,17.6233365 26.22,18.4933278 26.22,19.6 C26.22,20.26667 26.120001,20.8366643 25.92,21.31 C25.719999,21.7833357 25.4800014,22.1633319 25.2,22.45 C24.9199986,22.7366681 24.5533356,23.0599982 24.1,23.42 C23.5933308,23.8066686 23.2233345,24.1466652 22.99,24.44 C22.7566655,24.7333348 22.64,25.1066644 22.64,25.56 L22.64,26.3 L20.66,26.3 L20.66,25.26 Z M20.52,27.66 L22.76,27.66 L22.76,30 L20.52,30 L20.52,27.66 Z" id="?" fill="#FFFFFF"></path>
        </g>
    </g>
</svg>